<mxfile host="65bd71144e">
    <diagram id="nCt4SsVDhzAgE03gAHGr" name="Page-1">
        <mxGraphModel dx="777" dy="1675" grid="1" gridSize="10" guides="1" tooltips="1" connect="1" arrows="1" fold="1" page="1" pageScale="1" pageWidth="850" pageHeight="1100" math="0" shadow="0">
            <root>
                <mxCell id="0"/>
                <mxCell id="1" parent="0"/>
                <mxCell id="2" value="View Profile" style="swimlane;childLayout=stackLayout;resizeParent=1;resizeParentMax=0;startSize=20;fillColor=none;" vertex="1" parent="1">
                    <mxGeometry x="210" y="-20" width="620" height="1030" as="geometry">
                        <mxRectangle x="220" y="60" width="60" height="20" as="alternateBounds"/>
                    </mxGeometry>
                </mxCell>
                <mxCell id="3" value="Instructor" style="swimlane;startSize=20;" vertex="1" parent="2">
                    <mxGeometry y="20" width="280" height="1010" as="geometry"/>
                </mxCell>
                <mxCell id="4" value="click to view grades of the assignment" style="rounded=1;whiteSpace=wrap;html=1;fillColor=none;" vertex="1" parent="3">
                    <mxGeometry x="70" y="112" width="120" height="60" as="geometry"/>
                </mxCell>
                <mxCell id="5" value="change final marks if reuired" style="rounded=1;whiteSpace=wrap;html=1;fillColor=none;" vertex="1" parent="3">
                    <mxGeometry x="70" y="202" width="120" height="60" as="geometry"/>
                </mxCell>
                <mxCell id="6" style="edgeStyle=orthogonalEdgeStyle;rounded=0;orthogonalLoop=1;jettySize=auto;html=1;exitX=0.5;exitY=1;exitDx=0;exitDy=0;entryX=0.5;entryY=0;entryDx=0;entryDy=0;" edge="1" parent="3" source="7" target="4">
                    <mxGeometry relative="1" as="geometry"/>
                </mxCell>
                <mxCell id="7" value="" style="ellipse;whiteSpace=wrap;html=1;aspect=fixed;fillColor=#000000;" vertex="1" parent="3">
                    <mxGeometry x="115" y="40" width="30" height="30" as="geometry"/>
                </mxCell>
                <mxCell id="24" value="enter confirm" style="rounded=1;whiteSpace=wrap;html=1;fillColor=none;" vertex="1" parent="3">
                    <mxGeometry x="70" y="310" width="120" height="60" as="geometry"/>
                </mxCell>
                <mxCell id="9" style="edgeStyle=orthogonalEdgeStyle;rounded=0;orthogonalLoop=1;jettySize=auto;html=1;exitX=1;exitY=0.5;exitDx=0;exitDy=0;entryX=0;entryY=0.5;entryDx=0;entryDy=0;" edge="1" parent="2" source="4" target="13">
                    <mxGeometry relative="1" as="geometry"/>
                </mxCell>
                <mxCell id="10" style="edgeStyle=orthogonalEdgeStyle;rounded=0;orthogonalLoop=1;jettySize=auto;html=1;exitX=0.5;exitY=1;exitDx=0;exitDy=0;entryX=0.5;entryY=0;entryDx=0;entryDy=0;" edge="1" parent="2" source="13" target="5">
                    <mxGeometry relative="1" as="geometry">
                        <Array as="points">
                            <mxPoint x="415" y="202"/>
                            <mxPoint x="130" y="202"/>
                        </Array>
                    </mxGeometry>
                </mxCell>
                <mxCell id="11" style="edgeStyle=orthogonalEdgeStyle;rounded=0;orthogonalLoop=1;jettySize=auto;html=1;exitX=1;exitY=0.5;exitDx=0;exitDy=0;entryX=0;entryY=0.5;entryDx=0;entryDy=0;" edge="1" parent="2" source="5" target="14">
                    <mxGeometry relative="1" as="geometry"/>
                </mxCell>
                <mxCell id="12" value="System" style="swimlane;startSize=20;" vertex="1" parent="2">
                    <mxGeometry x="280" y="20" width="340" height="1010" as="geometry"/>
                </mxCell>
                <mxCell id="13" value="display list of grades" style="rounded=1;whiteSpace=wrap;html=1;fillColor=none;" vertex="1" parent="12">
                    <mxGeometry x="75" y="112" width="120" height="60" as="geometry"/>
                </mxCell>
                <mxCell id="14" value="prompt for confirm" style="rounded=1;whiteSpace=wrap;html=1;fillColor=none;" vertex="1" parent="12">
                    <mxGeometry x="75" y="202" width="120" height="60" as="geometry"/>
                </mxCell>
                <mxCell id="17" value="save the changes" style="rounded=1;whiteSpace=wrap;html=1;fillColor=none;" vertex="1" parent="12">
                    <mxGeometry x="75" y="310" width="120" height="60" as="geometry"/>
                </mxCell>
                <mxCell id="18" value="" style="group" vertex="1" connectable="0" parent="12">
                    <mxGeometry x="115" y="440" width="40" height="40" as="geometry"/>
                </mxCell>
                <mxCell id="19" value="" style="ellipse;whiteSpace=wrap;html=1;aspect=fixed;strokeWidth=1;fillColor=#000000;" vertex="1" parent="18">
                    <mxGeometry width="40" height="40" as="geometry"/>
                </mxCell>
                <mxCell id="20" value="" style="ellipse;whiteSpace=wrap;html=1;aspect=fixed;" vertex="1" parent="18">
                    <mxGeometry x="5" y="5" width="30" height="30" as="geometry"/>
                </mxCell>
                <mxCell id="23" style="edgeStyle=orthogonalEdgeStyle;rounded=0;orthogonalLoop=1;jettySize=auto;html=1;exitX=0.5;exitY=1;exitDx=0;exitDy=0;" edge="1" parent="12">
                    <mxGeometry relative="1" as="geometry">
                        <mxPoint x="135" y="440" as="targetPoint"/>
                        <mxPoint x="135" y="370" as="sourcePoint"/>
                    </mxGeometry>
                </mxCell>
                <mxCell id="25" style="edgeStyle=orthogonalEdgeStyle;rounded=0;orthogonalLoop=1;jettySize=auto;html=1;exitX=0.5;exitY=1;exitDx=0;exitDy=0;entryX=0.5;entryY=0;entryDx=0;entryDy=0;" edge="1" parent="2" source="14" target="24">
                    <mxGeometry relative="1" as="geometry"/>
                </mxCell>
                <mxCell id="26" style="edgeStyle=orthogonalEdgeStyle;rounded=0;orthogonalLoop=1;jettySize=auto;html=1;exitX=1;exitY=0.5;exitDx=0;exitDy=0;entryX=0;entryY=0.5;entryDx=0;entryDy=0;" edge="1" parent="2" source="24" target="17">
                    <mxGeometry relative="1" as="geometry"/>
                </mxCell>
            </root>
        </mxGraphModel>
    </diagram>
</mxfile>